/* XPM */
static char *dc29a9cd9e814f449ef2e1657e5c9539[] = {
/* columns rows colors chars-per-pixel */
"32 32 125 2 ",
"   c #7F3A33",
".  c #88373C",
"X  c #884C2A",
"o  c #894D2A",
"O  c #884A2C",
"+  c #8A4C2C",
"@  c #8C4D2C",
"#  c #935629",
"$  c #97562C",
"%  c #9E5B2D",
"&  c #9A4D37",
"*  c #95403F",
"=  c #9B4C39",
"-  c #A05C2F",
";  c #A05A31",
":  c #A5612E",
">  c #A9652E",
",  c #AE6334",
"<  c #B8613E",
"1  c #C96F3F",
"2  c #C37237",
"3  c #C67438",
"4  c #CD7B38",
"5  c #943D41",
"6  c #993B46",
"7  c #9A3E45",
"8  c #A34546",
"9  c #AB4F44",
"0  c #AD474D",
"q  c #B44F4A",
"w  c #AB5341",
"e  c #BB5B45",
"r  c #BE5A49",
"t  c #BE4B57",
"y  c #C85C4F",
"u  c #C74D5C",
"i  c #C75357",
"p  c #C66843",
"a  c #D0674C",
"s  c #D2654F",
"d  c #D66D4B",
"f  c #D37740",
"g  c #D87843",
"h  c #DF6E53",
"j  c #DE6A55",
"k  c #DF6957",
"l  c #DF6C54",
"z  c #E17E46",
"x  c #E37D48",
"c  c #E77D4B",
"v  c #E77B4C",
"b  c #E87F4A",
"n  c #E97E4B",
"m  c #EC7E4E",
"M  c #E06B56",
"N  c #E36F54",
"B  c #E8695E",
"V  c #EA7455",
"C  c #EC7556",
"Z  c #EE7657",
"A  c #EE7558",
"S  c #F27F51",
"D  c #F37B57",
"F  c #F37C55",
"G  c #F67A59",
"H  c #F6795B",
"J  c #F87B5A",
"K  c #FC7F5A",
"L  c #FA7B5C",
"P  c #FD7E5C",
"I  c #FE7E5C",
"U  c #FD7C5E",
"Y  c #D45560",
"T  c #D55660",
"R  c #D85860",
"E  c #ED5C6E",
"W  c #E36260",
"Q  c #E96364",
"!  c #EA6166",
"~  c #F06865",
"^  c #F4606F",
"/  c #F6636F",
"(  c #FA666F",
")  c #F76A68",
"_  c #FD6F69",
"`  c #FC6D6A",
"'  c #FD6D6B",
"]  c #FD6B6D",
"[  c #FC696E",
"{  c #F57161",
"}  c #F77460",
"|  c #F77064",
" . c #FC7067",
".. c #FD7168",
"X. c #FC6373",
"o. c #FC6571",
"O. c #FC6770",
"+. c #FB6174",
"@. c #FC6175",
"#. c #E4873F",
"$. c #E68246",
"%. c #EA8545",
"&. c #EC8A43",
"*. c #EF8F41",
"=. c #EF8A45",
"-. c #F48D47",
";. c #F68E47",
":. c #F88E4A",
">. c #FB8C4E",
",. c #FC8E4D",
"<. c #FE8F4D",
"1. c #FE8D4F",
"2. c #FE8E4E",
"3. c #FA9247",
"4. c #FD9744",
"5. c #FF9747",
"6. c #FF9945",
"7. c #FC904B",
"8. c #FF934A",
"9. c #FF9548",
"0. c #FF914C",
"q. c #F78055",
"w. c #FB8058",
"e. c #FE805A",
"r. c None",
/* pixels */
"r.r.r.r.r.r.r.r.r.r.r.r.r.r.r.r.r.r.r.r.r.r.r.r.r.r.r.r.r.r.r.r.",
"r.r.r.r.r.r.r.r.r.r.r.r.r.r.r.r.r.r.r.r.r.r.r.r.r.r.r.r.r.r.r.r.",
"r.r.r.r.r.r.r.r.r.r.r.r.r.r.r.r.r.r.r.r.r.r.r.r.r.r.r.r.r.r.r.r.",
"r.r.r.r.r.r.r.r.r.r.r.r.r.r.r.r.r.r.r.r.r.r.r.r.r.r.r.r.r.r.r.r.",
"r.r.r.r.r.r.r.r.r.r.r.r.r.r.r.r.r.r.r.r.r.r.r.r.r.r.r.r.r.r.r.r.",
"r.r.r.r.r.r.r.r.r.r.r.r.r.r.r.r.r.r.r.r.r.r.r.r.r.r.r.r.r.r.r.r.",
"r.r.r.r.r.r.r.r.r.r.r.r.r.r.r.r.r.r.r.r.9 B .._ W 8 r.r.r.r.r.r.",
"r.r.r.r.r.r.r.r.r.r.r.r.r.r.r.r.r.r.r } { | .._ _ [ [ 0 r.r.r.r.",
"r.r.r.r.r.r.r.r.r.r.r.r.r.r.r.r.r.s k k y   r.r.* Q [ O.T r.r.r.",
"r.r.r.r.r.r.r.r.r.r.r.r.r.r.r.r.e l k r.r.r.r.r.r.r.5 O.O.t r.r.",
"r.r.r.r.r., 1.1.+ r.r.r.r.r.r.r.h l r.r.r.r.r.r.r.r.r.. O.X.r.r.",
"r.r.r.r.;.7.7.1.r.r.r.r.r.r.r.a N w r.r.r.r.r.r.r.r.r.r.T X.u r.",
"r.r.r.3.8.:.o r.r.r.r.r.r.r.r.J A r.r.r.r.r.r.r.r.r.r.r.r.X.@.r.",
"r.r.#.9.=.r.r.r.r.r.r.r.r.r.r.I L r.r.r.r.r.r.r.r.r.r.r.r.X.X.r.",
"r.r.5.9.r.r.r.r.r.r.r.r.r.r.r.I U r.r.r.r.r.r.r.r.r.r.r.r.X.X.r.",
"r.4 5.2 r.r.r.r.r.r.r.r.r.r.r.I U r.r.r.r.r.r.r.r.r.r.r.r.X.@.r.",
"r.6.5.r.r.r.r.r.r.r.r.r.r.r.r.I U r.r.@ r.r.r.r.r.r.r.r.7 X.E r.",
"r.6.5.r.r.r.r.r.r.r.r.r.r.r.r.C U r.r.2.I r.r.r.r.r.r.r./ X.6 r.",
"r.6.5.r.r.r.r.r.r.r.r.r.r.r.r.G U r.r.>.I r.r.r.r.r.r.R X./ r.r.",
"r.*.9.# r.r.r.r.r.r.r.r.r.r.r.I U r.r.1 I q r.r.r.r.! O.o.r.r.r.",
"r.> 5.&.r.r.r.r.r.r.r.r.r.r.= I H r.r.+ I ~ r.r.) [ [ o.r.r.r.r.",
"r.r.5.9.% r.r.r.r.r.r.r.r.r.w.I = r.r.r.I ' r.r._ ' i r.r.r.r.r.",
"r.r.: 9.;.$ r.r.r.r.r.r.r.F e.V r.r.r.r.A _ r.r.r.r.r.r.r.r.r.r.",
"r.r.r.3 8.%.f o r.r.r.p q.w.D r.r.r.r.r.r.r.r.r.r.r.r.r.r.r.r.r.",
"r.r.r.r.- 8.$.g x c m S q.d r.r.r.r.r.r.r.r.r.r.r.r.r.r.r.r.r.r.",
"r.r.r.r.r.r.; g b n v < r.r.r.r.r.r.r.r.r.r.r.r.r.r.r.r.r.r.r.r.",
"r.r.r.r.r.r.r.r.r.r.r.r.r.r.r.r.r.r.r.r.r.r.r.r.r.r.r.r.r.r.r.r.",
"r.r.r.r.r.r.r.r.r.r.r.r.r.r.r.r.r.r.r.r.r.r.r.r.r.r.r.r.r.r.r.r.",
"r.r.r.r.r.r.r.r.r.r.r.r.r.r.r.r.r.r.r.r.r.r.r.r.r.r.r.r.r.r.r.r.",
"r.r.r.r.r.r.r.r.r.r.r.r.r.r.r.r.r.r.r.r.r.r.r.r.r.r.r.r.r.r.r.r.",
"r.r.r.r.r.r.r.r.r.r.r.r.r.r.r.r.r.r.r.r.r.r.r.r.r.r.r.r.r.r.r.r.",
"r.r.r.r.r.r.r.r.r.r.r.r.r.r.r.r.r.r.r.r.r.r.r.r.r.r.r.r.r.r.r.r."
};
