/* XPM */
static char *_97e53420aab4e70d6223c7f9e31122d[] = {
/* columns rows colors chars-per-pixel */
"64 64 123 2 ",
"   c #7E303B",
".  c #863D36",
"X  c #8A3B3B",
"o  c #8C4E2C",
"O  c #935729",
"+  c #99552F",
"@  c #9A592E",
"#  c #864132",
"$  c #8B4334",
"%  c #934737",
"&  c #934B34",
"*  c #9A4D37",
"=  c #94453A",
"-  c #9C4E38",
";  c #9D5532",
":  c #A25F2E",
">  c #A05435",
",  c #A55D32",
"<  c #A85B37",
"1  c #AF5E39",
"2  c #B1593F",
"3  c #A3602E",
"4  c #AD6234",
"5  c #AE6830",
"6  c #B46636",
"7  c #B56A34",
"8  c #BC6E36",
"9  c #B56538",
"0  c #BE6C3A",
"q  c #BD7234",
"w  c #C16F39",
"e  c #C37436",
"r  c #C6723A",
"t  c #CE763D",
"y  c #D47C3D",
"u  c #DC7F3F",
"i  c #8E3841",
"p  c #9B3E46",
"a  c #9D4343",
"s  c #AC4C47",
"d  c #A6444A",
"f  c #AC4B48",
"g  c #B24B4C",
"h  c #B15742",
"j  c #B25940",
"k  c #BA5B45",
"l  c #B5504B",
"z  c #BD564D",
"x  c #B14750",
"c  c #B54852",
"v  c #B84D50",
"b  c #BF4A59",
"n  c #BE6044",
"m  c #C15E49",
"M  c #C34B5A",
"N  c #C55257",
"B  c #C65950",
"V  c #CD5659",
"C  c #D65E5A",
"Z  c #C06244",
"A  c #CC6C44",
"S  c #D36A4C",
"D  c #DB6F4D",
"F  c #D47146",
"G  c #DC7B44",
"H  c #CF6250",
"J  c #D06151",
"K  c #D96456",
"L  c #DF6B55",
"P  c #DE6559",
"I  c #E17E46",
"U  c #E57D49",
"Y  c #EB7E4D",
"T  c #E26E54",
"R  c #E1615F",
"E  c #ED6C5F",
"W  c #E37153",
"Q  c #EA7455",
"!  c #EC7A51",
"~  c #EF725B",
"^  c #F17E52",
"/  c #F2735D",
"(  c #F9775F",
")  c #F5785B",
"_  c #FD7D5D",
"`  c #D55461",
"'  c #DC5665",
"]  c #E35C66",
"[  c #E75D68",
"{  c #EC5C6D",
"}  c #F85F73",
"|  c #E46360",
" . c #EB6069",
".. c #F26E61",
"X. c #F86F65",
"o. c #F4626E",
"O. c #FB676F",
"+. c #F7686A",
"@. c #FC6B6C",
"#. c #FD7366",
"$. c #FD7A60",
"%. c #FD7068",
"&. c #F56170",
"*. c #FC6473",
"=. c #FC6870",
"-. c #E0843E",
";. c #DF8140",
":. c #E48243",
">. c #E88544",
",. c #EA8943",
"<. c #EC814B",
"1. c #F38D46",
"2. c #F68B4A",
"3. c #FD8E4E",
"4. c #F69244",
"5. c #FF9646",
"6. c #FF9845",
"7. c #FF934A",
"8. c #F58053",
"9. c #F98057",
"0. c #FE8A52",
"q. c #FE8159",
"w. c None",
/* pixels */
"w.w.w.w.w.w.w.w.w.w.w.w.w.w.w.w.w.w.w.w.w.w.w.w.w.w.w.w.w.w.w.w.w.w.w.w.w.w.w.w.w.w.w.w.w.w.w.w.w.w.w.w.w.w.w.w.w.w.w.w.w.w.w.w.",
"w.w.w.w.w.w.w.w.w.w.w.w.w.w.w.w.w.w.w.w.w.w.w.w.w.w.w.w.w.w.w.w.w.w.w.w.w.w.w.w.w.w.w.w.w.w.w.w.w.w.w.w.w.w.w.w.w.w.w.w.w.w.w.w.",
"w.w.w.w.w.w.w.w.w.w.w.w.w.w.w.w.w.w.w.w.w.w.w.w.w.w.w.w.w.w.w.w.w.w.w.w.w.w.w.w.w.w.w.w.w.w.w.w.w.w.w.w.w.w.w.w.w.w.w.w.w.w.w.w.",
"w.w.w.w.w.w.w.w.w.w.w.w.w.w.w.w.w.w.w.w.w.w.w.w.w.w.w.w.w.w.w.w.w.w.w.w.w.w.w.w.w.w.w.w.w.w.w.w.w.w.w.w.w.w.w.w.w.w.w.w.w.w.w.w.",
"w.w.w.w.w.w.w.w.w.w.w.w.w.w.w.w.w.w.w.w.w.w.w.w.w.w.w.w.w.w.w.w.w.w.w.w.w.w.w.w.w.w.w.w.w.w.w.w.w.w.w.w.w.w.w.w.w.w.w.w.w.w.w.w.",
"w.w.w.w.w.w.w.w.w.w.w.w.w.w.w.w.w.w.w.w.w.w.w.w.w.w.w.w.w.w.w.w.w.w.w.w.w.w.w.w.w.w.w.w.w.w.w.w.w.w.w.w.w.w.w.w.w.w.w.w.w.w.w.w.",
"w.w.w.w.w.w.w.w.w.w.w.w.w.w.w.w.w.w.w.w.w.w.w.w.w.w.w.w.w.w.w.w.w.w.w.w.w.w.w.w.w.w.w.w.w.w.w.w.w.w.w.w.w.w.w.w.w.w.w.w.w.w.w.w.",
"w.w.w.w.w.w.w.w.w.w.w.w.w.w.w.w.w.w.w.w.w.w.w.w.w.w.w.w.w.w.w.w.w.w.w.w.w.w.w.w.w.w.w.w.w.w.w.w.w.w.w.w.w.w.w.w.w.w.w.w.w.w.w.w.",
"w.w.w.w.w.w.w.w.w.w.w.w.w.w.w.w.w.w.w.w.w.w.w.w.w.w.w.w.w.w.w.w.w.w.w.w.w.w.w.w.w.w.w.w.w.w.w.w.w.w.w.w.w.w.w.w.w.w.w.w.w.w.w.w.",
"w.w.w.w.w.w.w.w.w.w.w.w.w.w.w.w.w.w.w.w.w.w.w.w.w.w.w.w.w.w.w.w.w.w.w.w.w.w.w.w.w.w.w.w.w.w.w.w.w.w.w.w.w.w.w.w.w.w.w.w.w.w.w.w.",
"w.w.w.w.w.w.w.w.w.w.w.w.w.w.w.w.w.w.w.w.w.w.w.w.w.w.w.w.w.w.w.w.w.w.w.w.w.w.w.w.w.w.w.w.w.w.w.w.w.w.w.w.w.w.w.w.w.w.w.w.w.w.w.w.",
"w.w.w.w.w.w.w.w.w.w.w.w.w.w.w.w.w.w.w.w.w.w.w.w.w.w.w.w.w.w.w.w.w.w.w.w.w.w.w.w.w.w.w.w.w.w.w.w.w.w.w.w.w.w.w.w.w.w.w.w.w.w.w.w.",
"w.w.w.w.w.w.w.w.w.w.w.w.w.w.w.w.w.w.w.w.w.w.w.w.w.w.w.w.w.w.w.w.w.w.w.w.w.w.w.w.w.w.z E %.%.%.%.R g w.w.w.w.w.w.w.w.w.w.w.w.w.w.",
"w.w.w.w.w.w.w.w.w.w.w.w.w.w.w.w.w.w.w.w.w.w.w.w.w.w.w.w.w.w.w.w.w.w.w.w.w.w.w.H $.#.#.#.#.%.%.@.%.@.@.@.v w.w.w.w.w.w.w.w.w.w.w.",
"w.w.w.w.w.w.w.w.w.w.w.w.w.w.w.w.w.w.w.w.w.w.w.w.w.w.w.w.w.w.w.w.w.w.w.w.w.H $.#.#.#.#.%.%.%.%.%.@.%.@.@.=.=.x w.w.w.w.w.w.w.w.w.",
"w.w.w.w.w.w.w.w.w.w.w.w.w.w.w.w.w.w.w.w.w.w.w.w.w.w.w.w.w.w.w.w.w.w.w.w.( $./ E E ../ ..X.%.%.@.%.@.@.@.@.=.=. .w.w.w.w.w.w.w.w.",
"w.w.w.w.w.w.w.w.w.w.w.w.w.w.w.w.w.w.w.w.w.w.w.w.w.w.w.w.w.w.w.w.w.w.% ~ E L L L P R P P z g l ' @.%.@.@.=.=.=.=.O.w.w.w.w.w.w.w.",
"w.w.w.w.w.w.w.w.w.w.w.w.w.w.w.w.w.w.w.w.w.w.w.w.w.w.w.w.w.w.w.w.w.# W L L P L P K $ w.w.w.w.w.w.w.w.g @.@.=.=.=.O.*.w.w.w.w.w.w.",
"w.w.w.w.w.w.w.w.w.w.w.w.w.w.w.w.w.w.w.w.w.w.w.w.w.w.w.w.w.w.w.w.w.W T L L L L = w.w.w.w.w.w.w.w.w.w.w.w.N =.=.=.=.*.&.w.w.w.w.w.",
"w.w.w.w.w.w.w.w.w.w.w.w.w.w.+ o w.w.w.w.w.w.w.w.w.w.w.w.w.w.w.w.S L T L L K w.w.w.w.w.w.w.w.w.w.w.w.w.w.w.X =.=.=.*.*.` w.w.w.w.",
"w.w.w.w.w.w.w.w.w.w.w.; 3.3.3.0.I w.w.w.w.w.w.w.w.w.w.w.w.w.w.& T T L L L w.w.w.w.w.w.w.w.w.w.w.w.w.w.w.w.w.w.=.*.*.*.*.w.w.w.w.",
"w.w.w.w.w.w.w.w.w.w.7.7.3.3.3.3.3.w.w.w.w.w.w.w.w.w.w.w.w.w.w.W T L T L w.w.w.w.w.w.w.w.w.w.w.w.w.w.w.w.w.w.w.d *.*.*.*.{ w.w.w.",
"w.w.w.w.w.w.w.w.F 5.7.7.7.3.3.3.0.w.w.w.w.w.w.w.w.w.w.w.w.w.$ Q T T L 2 w.w.w.w.w.w.w.w.w.w.w.w.w.w.w.w.w.w.w.w.[ *.*.*.*.w.w.w.",
"w.w.w.w.w.w.w.,.7.7.7.3.3.3.3.7.w.w.w.w.w.w.w.w.w.w.w.w.w.w.W Q W T T w.w.w.w.w.w.w.w.w.w.w.w.w.w.w.w.w.w.w.w.w.w.*.*.*.*.b w.w.",
"w.w.w.w.w.w.,.7.5.7.7.3.3.F w.w.w.w.w.w.w.w.w.w.w.w.w.w.w.w._ ) Q Q m w.w.w.w.w.w.w.w.w.w.w.w.w.w.w.w.w.w.w.w.w.w.&.*.*.*.} w.w.",
"w.w.w.w.w.G 5.5.7.7.7.>.w.w.w.w.w.w.w.w.w.w.w.w.w.w.w.w.w.w._ ) ) ~ w.w.w.w.w.w.w.w.w.w.w.w.w.w.w.w.w.w.w.w.w.w.w.c *.*.*.} w.w.",
"w.w.w.w.O 5.5.7.7.7.w w.w.w.w.w.w.w.w.w.w.w.w.w.w.w.w.w.w.- _ q._ ) w.w.w.w.w.w.w.w.w.w.w.w.w.w.w.w.w.w.w.w.w.w.w.w.*.*.*.} w.w.",
"w.w.w.w.5.5.5.7.7.0 w.w.w.w.w.w.w.w.w.w.w.w.w.w.w.w.w.w.w.j _ _ _ _ w.w.w.w.w.w.w.w.w.w.w.w.w.w.w.w.w.w.w.w.w.w.w.w.*.*.*.*.w.w.",
"w.w.w.5 6.5.5.7.;.w.w.w.w.w.w.w.w.w.w.w.w.w.w.w.w.w.w.w.w.n $._ _ _ w.w.w.w.w.w.w.w.w.w.w.w.w.w.w.w.w.w.w.w.w.w.w.w.*.*.} *.i w.",
"w.w.w.6.5.5.7.5.w.w.w.w.w.w.w.w.w.w.w.w.w.w.w.w.w.w.w.w.w.j q._ _ $.w.w.w.w.w.w.w.w.w.w.w.w.w.w.w.w.w.w.w.w.w.w.w.w.*.} *.*.w.w.",
"w.w.w.6.6.5.7.8 w.w.w.w.w.w.w.w.w.w.w.w.w.w.w.w.w.w.w.w.w.- $.q._ $.w.w.w.w.w.w.w.w.w.w.w.w.w.w.w.w.w.w.w.w.w.w.w.w.*.*.*.*.w.w.",
"w.w.q 6.5.5.5.w.w.w.w.w.w.w.w.w.w.w.w.w.w.w.w.w.w.w.w.w.w.w.q.$.q._ w.w.w.w.w.w.w.w.w.w.w.w.w.w.w.w.w.w.w.w.w.w.w.b *.} *.*.w.w.",
"w.w.4.6.6.5.4.w.w.w.w.w.w.w.w.w.w.w.w.w.w.w.w.w.w.w.w.w.w.w.q._ $._ k w.w.w.w.w.w.w.w.w.w.w.w.w.w.w.w.w.w.w.w.w.w.&.*.*.*.} w.w.",
"w.w.6.6.5.5.r w.w.w.w.w.w.w.w.w.w.w.w.w.w.w.w.w.w.w.w.w.w.w._ _ q.$.L w.w.w.G 3.q.k w.w.w.w.w.w.w.w.w.w.w.w.w.w.w.O.*.*.} M w.w.",
"w.w.6.6.6.5.3 w.w.w.w.w.w.w.w.w.w.w.w.w.w.w.w.w.w.w.w.w.w.w.T q.$.$.) w.w.w.7.0.q.$.w.w.w.w.w.w.w.w.w.w.w.w.w.w.] =.*.*.*.w.w.w.",
"w.w.6.6.5.5.O w.w.w.w.w.w.w.w.w.w.w.w.w.w.w.w.w.w.w.w.w.w.w.S $._ _ $.w.w.w.7.0.q.$.# w.w.w.w.w.w.w.w.w.w.w.w.a *.*.*.*.{ w.w.w.",
"w.w.6.6.7.6.: w.w.w.w.w.w.w.w.w.w.w.w.w.w.w.w.w.w.w.w.w.w.w.W q._ _ $.w.w.w.7.0.q.$.B w.w.w.w.w.w.w.w.w.w.w.w.=.*.*.*.*.w.w.w.w.",
"w.w.6.6.6.6.w w.w.w.w.w.w.w.w.w.w.w.w.w.w.w.w.w.w.w.w.w.w.w.9._ _ $.T w.w.w.2.0.q.$.#.w.w.w.w.w.w.w.w.w.w.w.=.=.*.*.*.' w.w.w.w.",
"w.w.4.6.6.7.4.w.w.w.w.w.w.w.w.w.w.w.w.w.w.w.w.w.w.w.w.w.w.w.q._ _ $.k w.w.w.9 0.q.$.%.w.w.w.w.w.w.w.w.w.g =.=.=.*.*.*.w.w.w.w.w.",
"w.w.e 6.6.6.7.w.w.w.w.w.w.w.w.w.w.w.w.w.w.w.w.w.w.w.w.w.w.$ $.q._ _ w.w.w.w.w.0.q.$.%.X w.w.w.w.w.w.a +.=.=.=.=.*.*.w.w.w.w.w.w.",
"w.w.w.6.6.5.5.7 w.w.w.w.w.w.w.w.w.w.w.w.w.w.w.w.w.w.w.w.w.Q q.$._ _ w.w.w.w.w.0.q.$.%.V w.w.w.w.| @.@.=.@.=.*.O.*.w.w.w.w.w.w.w.",
"w.w.w.6.6.5.5.7.w.w.w.w.w.w.w.w.w.w.w.w.w.w.w.w.w.w.w.w.w.q.$.q._ L w.w.w.w.w.<.q.$.%.@.w.w.w.C @.%.@.@.@.=.=.+.w.w.w.w.w.w.w.w.",
"w.w.w.q 5.5.7.5.t w.w.w.w.w.w.w.w.w.w.w.w.w.w.w.w.w.w.w.^ _ _ $._ w.w.w.w.w.w.1 q.$.%.@.w.w.w.%.#.@.@.=.@.@.N w.w.w.w.w.w.w.w.w.",
"w.w.w.w.5.5.5.7.4., w.w.w.w.w.w.w.w.w.w.w.w.w.w.w.w.w.D q.q._ q.Q w.w.w.w.w.w.w.q.$.%.@.i w.w.f @.@.@.=.V w.w.w.w.w.w.w.w.w.w.w.",
"w.w.w.w.: 5.5.5.7.>., w.w.w.w.w.w.w.w.w.w.w.w.w.w.w.D q.q.q._ _ w.w.w.w.w.w.w.w.q.$.#.O.p w.w.w.w.l w.w.w.w.w.w.w.w.w.w.w.w.w.w.",
"w.w.w.w.w.:.5.7.7.2.:.r w.w.w.w.w.w.w.w.w.w.w.w.w.! 9.9.q.q._ j w.w.w.w.w.w.w.w.Z $.%.O.w.w.w.w.w.w.w.w.w.w.w.w.w.w.w.w.w.w.w.w.",
"w.w.w.w.w.w.1.7.7.7.>.:.I 4 w.w.w.w.w.w.w.w.w.A 8.9.9._ q.q.S w.w.w.w.w.w.w.w.w.w.w.$ w.w.w.w.w.w.w.w.w.w.w.w.w.w.w.w.w.w.w.w.w.",
"w.w.w.w.w.w.w.1.5.5.3.:.G I U G 0 , ; < A Y ^ 9.9.9.9.q.q.S w.w.w.w.w.w.w.w.w.w.w.w.w.w.w.w.w.w.w.w.w.w.w.w.w.w.w.w.w.w.w.w.w.w.",
"w.w.w.w.w.w.w.w.G 5.7.2.I G U I U U U U Y ^ ^ 8.8.9.9.9.k w.w.w.w.w.w.w.w.w.w.w.w.w.w.w.w.w.w.w.w.w.w.w.w.w.w.w.w.w.w.w.w.w.w.w.",
"w.w.w.w.w.w.w.w.w.@ 7.7.2.I I I I U U U Y <.^ 8.8.9.^ w.w.w.w.w.w.w.w.w.w.w.w.w.w.w.w.w.w.w.w.w.w.w.w.w.w.w.w.w.w.w.w.w.w.w.w.w.",
"w.w.w.w.w.w.w.w.w.w.w.4 3.2.>.U U U U <.Y ^ <.8.! & w.w.w.w.w.w.w.w.w.w.w.w.w.w.w.w.w.w.w.w.w.w.w.w.w.w.w.w.w.w.w.w.w.w.w.w.w.w.",
"w.w.w.w.w.w.w.w.w.w.w.w.w.w.9 I <.<.<.<.^ F > w.w.w.w.w.w.w.w.w.w.w.w.w.w.w.w.w.w.w.w.w.w.w.w.w.w.w.w.w.w.w.w.w.w.w.w.w.w.w.w.w.",
"w.w.w.w.w.w.w.w.w.w.w.w.w.w.w.w.w.w.w.w.w.w.w.w.w.w.w.w.w.w.w.w.w.w.w.w.w.w.w.w.w.w.w.w.w.w.w.w.w.w.w.w.w.w.w.w.w.w.w.w.w.w.w.w.",
"w.w.w.w.w.w.w.w.w.w.w.w.w.w.w.w.w.w.w.w.w.w.w.w.w.w.w.w.w.w.w.w.w.w.w.w.w.w.w.w.w.w.w.w.w.w.w.w.w.w.w.w.w.w.w.w.w.w.w.w.w.w.w.w.",
"w.w.w.w.w.w.w.w.w.w.w.w.w.w.w.w.w.w.w.w.w.w.w.w.w.w.w.w.w.w.w.w.w.w.w.w.w.w.w.w.w.w.w.w.w.w.w.w.w.w.w.w.w.w.w.w.w.w.w.w.w.w.w.w.",
"w.w.w.w.w.w.w.w.w.w.w.w.w.w.w.w.w.w.w.w.w.w.w.w.w.w.w.w.w.w.w.w.w.w.w.w.w.w.w.w.w.w.w.w.w.w.w.w.w.w.w.w.w.w.w.w.w.w.w.w.w.w.w.w.",
"w.w.w.w.w.w.w.w.w.w.w.w.w.w.w.w.w.w.w.w.w.w.w.w.w.w.w.w.w.w.w.w.w.w.w.w.w.w.w.w.w.w.w.w.w.w.w.w.w.w.w.w.w.w.w.w.w.w.w.w.w.w.w.w.",
"w.w.w.w.w.w.w.w.w.w.w.w.w.w.w.w.w.w.w.w.w.w.w.w.w.w.w.w.w.w.w.w.w.w.w.w.w.w.w.w.w.w.w.w.w.w.w.w.w.w.w.w.w.w.w.w.w.w.w.w.w.w.w.w.",
"w.w.w.w.w.w.w.w.w.w.w.w.w.w.w.w.w.w.w.w.w.w.w.w.w.w.w.w.w.w.w.w.w.w.w.w.w.w.w.w.w.w.w.w.w.w.w.w.w.w.w.w.w.w.w.w.w.w.w.w.w.w.w.w.",
"w.w.w.w.w.w.w.w.w.w.w.w.w.w.w.w.w.w.w.w.w.w.w.w.w.w.w.w.w.w.w.w.w.w.w.w.w.w.w.w.w.w.w.w.w.w.w.w.w.w.w.w.w.w.w.w.w.w.w.w.w.w.w.w.",
"w.w.w.w.w.w.w.w.w.w.w.w.w.w.w.w.w.w.w.w.w.w.w.w.w.w.w.w.w.w.w.w.w.w.w.w.w.w.w.w.w.w.w.w.w.w.w.w.w.w.w.w.w.w.w.w.w.w.w.w.w.w.w.w.",
"w.w.w.w.w.w.w.w.w.w.w.w.w.w.w.w.w.w.w.w.w.w.w.w.w.w.w.w.w.w.w.w.w.w.w.w.w.w.w.w.w.w.w.w.w.w.w.w.w.w.w.w.w.w.w.w.w.w.w.w.w.w.w.w.",
"w.w.w.w.w.w.w.w.w.w.w.w.w.w.w.w.w.w.w.w.w.w.w.w.w.w.w.w.w.w.w.w.w.w.w.w.w.w.w.w.w.w.w.w.w.w.w.w.w.w.w.w.w.w.w.w.w.w.w.w.w.w.w.w.",
"w.w.w.w.w.w.w.w.w.w.w.w.w.w.w.w.w.w.w.w.w.w.w.w.w.w.w.w.w.w.w.w.w.w.w.w.w.w.w.w.w.w.w.w.w.w.w.w.w.w.w.w.w.w.w.w.w.w.w.w.w.w.w.w."
};
