/* XPM */
static char *a8808b16cfbd4a5eacc0529a23ed98c2[] = {
/* columns rows colors chars-per-pixel */
"16 16 49 1 ",
"  c #803C32",
". c #814E23",
"X c #895225",
"o c #9E5C2D",
"O c #894432",
"+ c #8E4931",
"@ c #8E4238",
"# c #904635",
"$ c #954937",
"% c #9D4E39",
"& c #A34F3D",
"* c #A7533C",
"= c #AF6731",
"- c #B16534",
"; c #BA6E34",
": c #C8733A",
"> c #C87538",
", c #913843",
"< c #983B47",
"1 c #9B3D47",
"2 c #A7424C",
"3 c #A9444D",
"4 c #B05641",
"5 c #B75A44",
"6 c #B74B51",
"7 c #BE4F54",
"8 c #C45D4C",
"9 c #C76447",
"0 c #C9604D",
"q c #D3674F",
"w c #D06B48",
"e c #D07440",
"r c #DE7F41",
"t c #DF764A",
"y c #E77E4A",
"u c #E0665A",
"i c #E0605F",
"p c #E57252",
"a c #D55560",
"s c #E25A67",
"d c #E25D64",
"f c #F2606E",
"g c #FB6B6B",
"h c #FA7462",
"j c #FD7068",
"k c #F08D43",
"l c #FD8E4E",
"z c #FA9346",
"x c None",
/* pixels */
"xxxxxxxxxxxxxxxx",
"xxxxxxxxxxxxxxxx",
"xxxxxxxxxxxxxxxx",
"xxxxxxxxx ujixxx",
"xxxxxxxx&8xxxd3x",
"xx-lxxxxqxxxxxfx",
"x>:xxxx%$xxxxx2,",
"xkxxxxx*#xxxxx1<",
"X=xxxxxx5xxxxxsx",
".;xxxxxO4x0xx6ax",
"xzxxxxxpxxhxg7xx",
"xorxxxw9xx@xxxxx",
"xxxeyt+xxxxxxxxx",
"xxxxxxxxxxxxxxxx",
"xxxxxxxxxxxxxxxx",
"xxxxxxxxxxxxxxxx"
};
